<?xml version="1.0" standalone="no"?>
<!DOCTYPE svg PUBLIC "-//W3C//DTD SVG 20010904//EN"
 "http://www.w3.org/TR/2001/REC-SVG-20010904/DTD/svg10.dtd">
<svg version="1.0" xmlns="http://www.w3.org/2000/svg"
 width="330.000000pt" height="330.000000pt" viewBox="0 0 330.000000 330.000000"
 preserveAspectRatio="xMidYMid meet">
<metadata>
Created by potrace 1.14, written by Peter Selinger 2001-2017
</metadata>
<g transform="translate(0.000000,330.000000) scale(0.100000,-0.100000)"
fill="#000000" stroke="none">
<path d="M117 3002 c-2 -4 -4 -66 -4 -139 l-1 -132 30 -33 c40 -45 139 -156
161 -182 10 -12 51 -57 90 -100 40 -44 79 -87 87 -96 28 -32 138 -155 161
-181 77 -84 165 -184 229 -259 21 -25 47 -54 57 -66 10 -12 41 -48 69 -80 29
-32 69 -80 90 -105 39 -46 123 -143 219 -254 50 -58 158 -183 254 -294 93
-107 86 -102 109 -81 11 10 60 65 108 122 49 57 91 105 94 108 3 3 30 34 60
70 30 36 58 67 61 70 3 3 32 37 64 75 32 39 61 72 64 75 3 3 33 37 66 75 33
39 64 75 70 81 5 6 55 64 109 127 55 64 102 114 105 111 3 -3 6 -400 6 -882
l0 -877 358 -3 357 -2 0 1429 0 1429 -310 1 -309 1 -107 -122 c-59 -68 -121
-139 -138 -158 -17 -19 -72 -82 -121 -140 -50 -58 -104 -121 -121 -140 -17
-19 -82 -93 -144 -165 -62 -71 -140 -161 -174 -199 -33 -38 -73 -84 -87 -103
l-27 -33 -43 49 c-24 26 -55 61 -69 77 -13 16 -87 101 -163 189 -77 88 -149
171 -161 185 -11 14 -64 75 -116 135 -53 61 -107 123 -120 139 -14 16 -36 41
-50 56 -14 15 -45 51 -70 81 -25 29 -65 75 -89 101 l-44 48 -303 -1 c-167 0
-305 -4 -307 -7z"/>
<path d="M113 1230 l0 -1080 768 0 769 0 1 38 c1 44 0 519 0 545 -1 16 -27 17
-411 17 -226 0 -411 3 -411 8 -1 4 -2 186 -3 405 l-1 398 -37 42 c-20 23 -58
65 -85 93 -26 28 -93 100 -148 160 -98 106 -164 176 -301 323 -38 40 -81 86
-95 102 -14 16 -30 29 -36 29 -7 0 -10 -342 -10 -1080z"/>
</g>
</svg>
